<svg width="25" height="24" viewBox="0 0 25 24" fill="none" xmlns="http://www.w3.org/2000/svg">
<g id="icon / jam-icons / outline &#38; logos / google">
<path id="Vector" d="M6.87592 10.068C6.66317 10.6899 6.55504 11.3427 6.55592 12C6.55592 12.734 6.68792 13.437 6.93192 14.086C7.23603 14.8972 7.71372 15.6321 8.33156 16.2393C8.9494 16.8466 9.69247 17.3115 10.5088 17.6015C11.3251 17.8916 12.1949 17.9998 13.0574 17.9185C13.9199 17.8372 14.7542 17.5684 15.5019 17.131H15.5029C16.681 16.4404 17.5861 15.3661 18.0669 14.088H12.7199V10.132H22.3249C22.5733 11.4405 22.5584 12.7854 22.2809 14.088C21.8001 16.3399 20.5568 18.3568 18.7609 19.798C16.9871 21.2264 14.7773 22.0035 12.4999 22C10.7829 22.001 9.09455 21.5597 7.59755 20.7187C6.10056 19.8778 4.84538 18.6655 3.95293 17.1986C3.06049 15.7317 2.56086 14.0597 2.50218 12.3437C2.4435 10.6276 2.82776 8.92542 3.61792 7.401C4.46089 5.77291 5.7353 4.40796 7.3018 3.4554C8.86829 2.50284 10.6665 1.99936 12.4999 2C14.9259 2 17.1509 2.864 18.8829 4.302L15.6429 6.954C14.8839 6.48164 14.0282 6.18643 13.1394 6.09034C12.2507 5.99424 11.3516 6.09972 10.5092 6.39894C9.66682 6.69816 8.90269 7.18342 8.27366 7.81864C7.64463 8.45386 7.16688 9.2227 6.87592 10.068Z" fill="#FF7426"/>
</g>
</svg>
